<?xml version="1.0" encoding="UTF-8" standalone="no"?>
<!-- Created with Inkscape (http://www.inkscape.org/) -->

<svg
   width="5.2916665mm"
   height="5.292006mm"
   viewBox="0 0 5.2916665 5.292006"
   version="1.1"
   id="svg1"
   xml:space="preserve"
   xmlns="http://www.w3.org/2000/svg"
   xmlns:svg="http://www.w3.org/2000/svg"><defs
     id="defs1" /><g
     id="layer1"
     transform="translate(-184.86689,-152.14637)"><g
       id="g1"
       transform="matrix(0.26458333,0,0,0.26458333,184.86688,152.14637)"><rect
         id="back"
         width="20"
         height="20"
         fill="none"
         x="0"
         y="0" /><g
         id="active"
         transform="translate(0.508)"
         style="fill:#800000"><path
           id="Path_23935"
           data-name="Path 23935"
           d="M 7.624,19.375 A 2.534,2.534 0 0 1 6.604,19.156 9.788,9.788 0 0 1 2.577,15.905 10.547,10.547 0 0 1 0.713,11.042 11.045,11.045 0 0 1 1.066,6.547 8.136,8.136 0 0 1 6.679,1.005 a 10.567,10.567 0 0 1 6.227,0.187 7.808,7.808 0 0 1 4.766,4.663 11.194,11.194 0 0 1 0.541,2.071 10.241,10.241 0 0 1 -0.168,4.246 6.838,6.838 0 0 1 -2.045,3.411 6.428,6.428 0 0 1 -3.591,1.629 9.485,9.485 0 0 1 -1.031,0.043 h -0.437 -0.317 a 0.678,0.678 0 0 0 -0.526,0.246 l -0.008,0.01 a 1.159,1.159 0 0 0 -0.157,0.27 2.535,2.535 0 0 1 -2.307,1.6 z"
           fill="#00b2ca"
           style="fill:#a30100;fill-opacity:1" /></g><g
         id="Chat"
         transform="translate(0.508)"><path
           id="Path_23945"
           data-name="Path 23945"
           d="m 9.486,1.25 a 10.224,10.224 0 0 1 3.223,0.536 7.18,7.18 0 0 1 4.378,4.29 10.569,10.569 0 0 1 0.513,1.954 9.623,9.623 0 0 1 -0.158,3.988 6.217,6.217 0 0 1 -1.86,3.1 5.808,5.808 0 0 1 -3.244,1.473 8.977,8.977 0 0 1 -0.959,0.039 h -0.432 -0.32 -0.005 a 1.3,1.3 0 0 0 -1,0.473 l -0.008,0.01 -0.008,0.01 a 1.788,1.788 0 0 0 -0.242,0.413 v 0 A 1.887,1.887 0 0 1 7.624,18.75 1.911,1.911 0 0 1 6.854,18.583 9.232,9.232 0 0 1 4.733,17.293 9.073,9.073 0 0 1 3.084,15.54 9.922,9.922 0 0 1 1.333,10.965 10.425,10.425 0 0 1 1.665,6.723 7.506,7.506 0 0 1 6.842,1.609 10.147,10.147 0 0 1 9.486,1.25 m 0,-1.25 a 11.338,11.338 0 0 0 -2.97,0.4 8.749,8.749 0 0 0 -6.049,5.97 11.613,11.613 0 0 0 -0.374,4.748 10.613,10.613 0 0 0 6.26,8.611 3.093,3.093 0 0 0 4.154,-1.706 0.57,0.57 0 0 1 0.071,-0.127 0.054,0.054 0 0 1 0.042,-0.02 c 0.246,0 0.5,0 0.756,0 a 9.894,9.894 0 0 0 1.1,-0.048 7.279,7.279 0 0 0 6.172,-5.507 10.817,10.817 0 0 0 0.179,-4.5 A 11.773,11.773 0 0 0 18.255,5.634 8.425,8.425 0 0 0 13.1,0.6 11.424,11.424 0 0 0 9.486,0 Z" /><path
           id="Path_23946"
           data-name="Path 23946"
           d="M 12.419,6.917 H 5.912 a 0.625,0.625 0 0 1 0,-1.25 h 6.507 a 0.625,0.625 0 0 1 0,1.25 z" /><path
           id="Path_23947"
           data-name="Path 23947"
           d="m 10.113,10.66 h -4.2 a 0.625,0.625 0 0 1 0,-1.25 h 4.2 a 0.625,0.625 0 1 1 0,1.25 z" /></g></g></g></svg>
