<?xml version="1.0" encoding="UTF-8" standalone="no"?>
<!-- Created with Inkscape (http://www.inkscape.org/) -->

<svg
   width="5.29249mm"
   height="5.2919254mm"
   viewBox="0 0 5.29249 5.2919254"
   version="1.1"
   id="svg1"
   xml:space="preserve"
   xmlns="http://www.w3.org/2000/svg"
   xmlns:svg="http://www.w3.org/2000/svg"><defs
     id="defs1" /><g
     id="layer1"
     transform="translate(-183.32135,-150.24087)"><g
       id="g1"
       transform="matrix(0.26458333,0,0,0.26458333,184.86688,152.14637)"><g
         id="g2"
         transform="translate(-5.838228,-7.2019305)"><rect
           id="back"
           width="20"
           height="20"
           fill="none"
           x="0"
           y="0" /><path
           id="Path_23940"
           data-name="Path 23940"
           d="m 11.13,19.375 h -0.986 c -1.083,0 -2.055,0 -2.981,-0.037 A 6.183,6.183 0 0 1 4.836,18.89 C 3.557,18.29 2.986,16.875 2.552,15.59 2.173,14.473 1.711,13.027 1.178,11.29 A 10.314,10.314 0 0 1 0.627,8.666 3.46,3.46 0 0 1 1.645,6.066 11.539,11.539 0 0 1 2.937,4.906 C 4.262,3.875 5.628,2.863 7,1.9 A 7.167,7.167 0 0 1 9.158,0.739 3.416,3.416 0 0 1 10.017,0.625 3.311,3.311 0 0 1 11.551,1.012 12.662,12.662 0 0 1 13.16,1.99 c 1.59,1.136 3.02,2.208 4.248,3.185 a 10.017,10.017 0 0 1 1.061,1.005 3.529,3.529 0 0 1 0.817,1.551 7.021,7.021 0 0 1 -0.425,3.439 c -0.409,1.354 -0.842,2.721 -1.287,4.062 -0.177,0.532 -0.379,1.062 -0.6,1.575 a 4.963,4.963 0 0 1 -0.741,1.253 3.885,3.885 0 0 1 -2.92,1.246 c -0.545,0.046 -1.252,0.069 -2.1,0.069 z M 8.075,14.061 a 1.3,1.3 0 0 0 -0.936,0.4 1.332,1.332 0 0 0 -0.38,0.939 v 0.04 a 1.328,1.328 0 0 0 1.319,1.331 l 3.849,-0.007 a 1.328,1.328 0 0 0 1.316,-1.336 v -0.04 a 1.328,1.328 0 0 0 -1.319,-1.331 v 0 l -3.846,0.007 z"
           transform="translate(0,0.001)"
           fill="#00b2ca"
           style="fill:#a30100;fill-opacity:1" /><path
           id="Home"
           d="M 10.018,1.25 A 2.705,2.705 0 0 1 11.269,1.568 12.048,12.048 0 0 1 12.8,2.5 c 1.581,1.13 3,2.195 4.223,3.165 A 9.259,9.259 0 0 1 18,6.6 a 2.924,2.924 0 0 1 0.675,1.283 6.558,6.558 0 0 1 -0.416,3.109 c -0.407,1.349 -0.839,2.71 -1.282,4.046 -0.17,0.514 -0.366,1.027 -0.581,1.523 a 4.348,4.348 0 0 1 -0.643,1.095 3.293,3.293 0 0 1 -2.5,1.03 c -0.528,0.044 -1.218,0.066 -2.048,0.066 h -1.057 c -1.079,0 -2.046,0 -2.962,-0.037 A 5.685,5.685 0 0 1 5.1,18.325 C 4.15,17.883 3.632,16.833 3.144,15.393 2.767,14.282 2.307,12.841 1.775,11.112 A 9.82,9.82 0 0 1 1.25,8.652 2.828,2.828 0 0 1 2.1,6.494 10.923,10.923 0 0 1 3.32,5.4 C 4.637,4.375 6,3.368 7.359,2.406 A 6.678,6.678 0 0 1 9.316,1.343 2.788,2.788 0 0 1 10.016,1.25 M 8.078,17.394 v 0 l 3.846,-0.007 a 1.954,1.954 0 0 0 1.94,-1.962 v -0.04 A 1.955,1.955 0 0 0 11.919,13.43 v 0 L 8.073,13.437 A 1.954,1.954 0 0 0 6.134,15.4 v 0.04 a 1.954,1.954 0 0 0 1.944,1.955 M 10.018,0 A 4.027,4.027 0 0 0 9,0.134 7.662,7.662 0 0 0 6.638,1.385 Q 4.561,2.851 2.553,4.412 A 12.124,12.124 0 0 0 1.195,5.629 4.091,4.091 0 0 0 0,8.682 10.849,10.849 0 0 0 0.58,11.477 q 0.807,2.623 1.38,4.314 c 0.491,1.452 1.14,2.978 2.612,3.664 A 6.938,6.938 0 0 0 7.14,19.961 C 8.1,20 9.114,20 10.148,20 h 1.063 q 1.3,0 2.153,-0.071 a 4.537,4.537 0 0 0 3.342,-1.462 5.62,5.62 0 0 0 0.841,-1.412 q 0.346,-0.8 0.621,-1.627 0.673,-2.03 1.292,-4.078 A 7.514,7.514 0 0 0 19.893,7.581 4.184,4.184 0 0 0 18.935,5.762 10.571,10.571 0 0 0 17.8,4.683 Q 15.935,3.201 13.526,1.483 A 13.27,13.27 0 0 0 11.837,0.454 3.978,3.978 0 0 0 10.018,0 Z M 8.078,16.144 A 0.7,0.7 0 0 1 7.384,15.437 V 15.4 a 0.7,0.7 0 0 1 0.692,-0.71 l 3.846,-0.007 v 0 a 0.7,0.7 0 0 1 0.694,0.707 v 0.04 a 0.7,0.7 0 0 1 -0.692,0.71 l -3.846,0.007 z"
           transform="translate(0,0.001)" /></g></g></g></svg>
