<?xml version="1.0" encoding="UTF-8" standalone="no"?>
<!-- Created with Inkscape (http://www.inkscape.org/) -->

<svg
   width="5.2916665mm"
   height="5.2921352mm"
   viewBox="0 0 5.2916665 5.2921352"
   version="1.1"
   id="svg1"
   xml:space="preserve"
   xmlns="http://www.w3.org/2000/svg"
   xmlns:svg="http://www.w3.org/2000/svg"><defs
     id="defs1" /><g
     id="layer1"
     transform="translate(-182.42768,-192.70931)"><g
       id="g1"
       transform="matrix(0.26458333,0,0,0.26458333,184.86688,152.14637)"><g
         id="g2"
         transform="translate(-5.838228,-7.2019305)"><g
           id="g3"
           transform="translate(-3.3807522,160.51249)"><rect
             id="back"
             width="20"
             height="20"
             fill="none"
             x="0"
             y="0" /><g
             id="Active_myads"
             transform="translate(0.343)"><path
               id="Path_23931"
               data-name="Path 23931"
               d="m 17.924,11.657 a 1.369,1.369 0 0 1 -0.531,0.558 c -1,0.656 -2.007,1.319 -3.007,1.969 a 9.715,9.715 0 0 1 -4.8,1.617 c -0.261,0.016 -0.552,0.018 -0.86,0.02 -0.386,0 -0.786,0.006 -1.14,0.038 A 11.489,11.489 0 0 0 2.849,17.4 l -0.015,0.007 a 0.085,0.085 0 0 1 -0.026,0 0.081,0.081 0 0 1 -0.077,-0.056 L 1.948,15.06 a 0.109,0.109 0 0 1 0.012,-0.1 c 0.351,-0.549 0.708,-1.1 1.06,-1.65 a 4.878,4.878 0 0 1 4.118,-2.231 c 0.123,0 0.248,0 0.371,0.014 0.285,0.02 0.493,0.03 0.619,0.03 0.821,0 1.655,0 2.477,0.008 a 1.067,1.067 0 0 1 0.432,0.068 0.716,0.716 0 0 1 0.412,0.662 0.708,0.708 0 0 1 -0.414,0.653 1.081,1.081 0 0 1 -0.431,0.067 h -1.368 -0.4 a 1.181,1.181 0 0 0 -0.42,0.054 0.6,0.6 0 0 0 -0.362,0.56 0.629,0.629 0 0 0 0.374,0.592 0.958,0.958 0 0 0 0.358,0.052 h 1.31 0.582 a 2.007,2.007 0 0 0 1.966,-1.47 0.117,0.117 0 0 1 0.054,-0.068 c 1.209,-0.716 2.437,-1.443 3.65,-2.159 A 1.039,1.039 0 0 1 16.887,10 a 1.188,1.188 0 0 1 1.032,0.61 1.114,1.114 0 0 1 0.005,1.045 z"
               fill="#00b2ca"
               style="fill:#a30100;fill-opacity:1" /><path
               id="Path_23932"
               data-name="Path 23932"
               d="M 14.8,2.168 A 1.221,1.221 0 0 0 13.95,1.319 1.839,1.839 0 0 0 13.428,1.26 H 5.629 A 1.279,1.279 0 0 0 4.414,2.124 3.179,3.179 0 0 0 4.344,2.955 c 0,2.448 0,4.936 0,7.392 a 0.075,0.075 0 0 0 0.074,0.081 0.091,0.091 0 0 0 0.038,-0.009 6.219,6.219 0 0 1 2.66,-0.6 c 0.169,0 0.341,0.007 0.511,0.02 0.28,0.022 0.5,0.033 0.651,0.033 h 2.258 a 2.882,2.882 0 0 1 0.66,0.058 2,2 0 0 1 1.265,0.958 0.08,0.08 0 0 0 0.114,0.029 L 14.8,9.6 A 0.1,0.1 0 0 0 14.851,9.511 V 2.681 A 1.789,1.789 0 0 0 14.791,2.168 Z M 12.9,4.2 A 2.413,2.413 0 0 1 12.715,4.725 3.617,3.617 0 0 1 11.745,6.032 3.393,3.393 0 0 1 10.311,6.718 3.344,3.344 0 0 1 9.574,6.801 3.432,3.432 0 0 1 6.374,4.483 0.917,0.917 0 0 1 6.309,3.915 0.633,0.633 0 0 1 6.924,3.465 0.593,0.593 0 0 1 7.439,3.752 C 7.444,3.762 7.47,3.82 7.586,4.136 a 2.06,2.06 0 0 0 0.443,0.722 2.141,2.141 0 0 0 3.587,-0.75 2.6,2.6 0 0 1 0.157,-0.38 0.577,0.577 0 0 1 0.488,-0.264 0.678,0.678 0 0 1 0.515,0.242 A 0.58,0.58 0 0 1 12.9,4.2 Z"
               fill="#00b2ca"
               style="fill:#a30100;fill-opacity:1" /></g><g
             id="myads"
             transform="translate(0.342)"><path
               id="Path_23921"
               data-name="Path 23921"
               d="M 6.03,0 H 6.017 A 5.714,5.714 0 0 0 5.177,0.041 2.546,2.546 0 0 0 3.14,2.01 4.626,4.626 0 0 0 3.085,2.859 v 8.416 a 0.111,0.111 0 0 1 -0.037,0.082 8.639,8.639 0 0 0 -1.558,2 A 0.08,0.08 0 0 1 1.422,13.399 0.076,0.076 0 0 1 1.35,13.341 C 1.334,13.294 1.317,13.241 1.302,13.194 A 1.821,1.821 0 0 0 1.159,12.834 0.6,0.6 0 0 0 0.64,12.548 0.621,0.621 0 0 0 0.001,13.108 1.571,1.571 0 0 0 0.112,13.621 C 0.764,15.56 1.426,17.52 2.08,19.454 A 1.064,1.064 0 0 0 2.242,19.788 0.6,0.6 0 0 0 2.7,20 0.685,0.685 0 0 0 3.191,19.783 0.584,0.584 0 0 0 3.343,19.324 2.051,2.051 0 0 0 3.222,18.894 C 3.202,18.837 3.183,18.783 3.165,18.73 A 0.077,0.077 0 0 1 3.2,18.638 15.1,15.1 0 0 1 4.9,17.788 9.772,9.772 0 0 1 8.437,17.083 h 0.277 c 0.415,0 0.845,-0.008 1.2,-0.039 a 10.812,10.812 0 0 0 4.974,-1.681 c 0.455,-0.291 1.5,-0.977 3.111,-2.039 a 4.021,4.021 0 0 0 0.64,-0.493 2.412,2.412 0 0 0 -0.73,-3.857 2.321,2.321 0 0 0 -0.986,-0.222 2.631,2.631 0 0 0 -0.705,0.1 0.113,0.113 0 0 1 -0.027,0 0.08,0.08 0 0 1 -0.08,-0.086 c 0,-1.994 0,-4.009 0,-5.987 A 3.955,3.955 0 0 0 16.052,1.993 2.541,2.541 0 0 0 15.364,0.741 2.5,2.5 0 0 0 14.105,0.055 4.632,4.632 0 0 0 13.257,0 Z m 3.5,1.26 h 3.9 a 1.839,1.839 0 0 1 0.522,0.059 1.221,1.221 0 0 1 0.85,0.849 1.789,1.789 0 0 1 0.06,0.513 V 9.513 A 0.1,0.1 0 0 1 14.8,9.6 l -2.229,1.317 A 0.08,0.08 0 0 1 12.457,10.888 2,2 0 0 0 11.2,9.932 2.882,2.882 0 0 0 10.54,9.874 H 8.282 C 8.13,9.874 7.911,9.863 7.631,9.841 7.46,9.827 7.288,9.821 7.12,9.821 a 6.219,6.219 0 0 0 -2.66,0.6 0.091,0.091 0 0 1 -0.038,0.009 0.075,0.075 0 0 1 -0.074,-0.081 c 0,-2.457 0,-4.944 0,-7.392 A 3.179,3.179 0 0 1 4.418,2.126 1.279,1.279 0 0 1 5.629,1.26 h 3.9 z m 0.57,12.588 h 0.582 a 2.007,2.007 0 0 0 1.966,-1.47 0.117,0.117 0 0 1 0.054,-0.068 c 1.209,-0.716 2.437,-1.443 3.65,-2.159 A 1.039,1.039 0 0 1 16.887,10 a 1.188,1.188 0 0 1 1.032,0.61 1.114,1.114 0 0 1 0.005,1.045 1.369,1.369 0 0 1 -0.531,0.558 c -1,0.656 -2.007,1.319 -3.007,1.969 a 9.715,9.715 0 0 1 -4.8,1.617 c -0.261,0.016 -0.552,0.018 -0.86,0.02 -0.386,0 -0.786,0.006 -1.14,0.038 A 11.489,11.489 0 0 0 2.849,17.4 l -0.015,0.007 a 0.085,0.085 0 0 1 -0.026,0 0.081,0.081 0 0 1 -0.077,-0.056 L 1.948,15.06 a 0.109,0.109 0 0 1 0.012,-0.1 c 0.351,-0.549 0.708,-1.1 1.06,-1.65 a 4.878,4.878 0 0 1 4.118,-2.231 c 0.123,0 0.248,0 0.371,0.014 0.285,0.02 0.493,0.03 0.619,0.03 0.821,0 1.655,0 2.477,0.008 a 1.067,1.067 0 0 1 0.432,0.068 0.716,0.716 0 0 1 0.412,0.662 0.708,0.708 0 0 1 -0.414,0.653 1.081,1.081 0 0 1 -0.431,0.067 h -1.368 -0.4 a 1.181,1.181 0 0 0 -0.42,0.054 0.6,0.6 0 0 0 -0.362,0.56 0.629,0.629 0 0 0 0.374,0.592 0.958,0.958 0 0 0 0.358,0.052 h 1.31 v 0 z" /><path
               id="Path_23923"
               data-name="Path 23923"
               d="M 12.265,3.463 A 0.577,0.577 0 0 0 11.777,3.727 2.6,2.6 0 0 0 11.62,4.107 2.141,2.141 0 0 1 8.033,4.857 2.06,2.06 0 0 1 7.59,4.135 C 7.475,3.819 7.449,3.762 7.443,3.751 A 0.593,0.593 0 0 0 6.928,3.464 0.633,0.633 0 0 0 6.313,3.914 0.917,0.917 0 0 0 6.378,4.482 3.432,3.432 0 0 0 9.579,6.8 3.344,3.344 0 0 0 10.316,6.717 3.393,3.393 0 0 0 11.75,6.031 3.617,3.617 0 0 0 12.72,4.724 2.413,2.413 0 0 0 12.9,4.2 0.58,0.58 0 0 0 12.776,3.706 0.685,0.685 0 0 0 12.261,3.464 v 0 z" /></g></g></g></g></g></svg>
