<?xml version="1.0" encoding="UTF-8" standalone="no"?>
<!-- Created with Inkscape (http://www.inkscape.org/) -->

<svg
   width="5.2916665mm"
   height="5.2921515mm"
   viewBox="0 0 5.2916665 5.2921515"
   version="1.1"
   id="svg1"
   xml:space="preserve"
   xmlns="http://www.w3.org/2000/svg"
   xmlns:svg="http://www.w3.org/2000/svg"><defs
     id="defs1" /><g
     id="layer1"
     transform="translate(-175.76033,-191.53814)"><g
       id="g1"
       transform="matrix(0.26458333,0,0,0.26458333,184.86688,152.14637)"><g
         id="g2"
         transform="translate(-5.838228,-7.2019305)"><g
           id="g3"
           transform="translate(-3.3807522,160.51249)"><g
             id="g4"
             transform="translate(-25.199491,-4.428255)"><rect
               id="back"
               width="20"
               height="20"
               fill="none"
               x="0"
               y="0" /><g
               id="Active_profile"
               transform="translate(2.962)"><circle
                 id="Ellipse_307"
                 data-name="Ellipse 307"
                 cx="4.1230001"
                 cy="4.1230001"
                 r="4.1230001"
                 transform="translate(2.914,0.625)"
                 fill="#00b2ca"
                 style="fill:#a30100;fill-opacity:1" /><path
                 id="Path_23943"
                 data-name="Path 23943"
                 d="M 7.05,18.79 A 10.106,10.106 0 0 1 4.437,18.449 C 3.737,18.263 1.421,17.514 0.751,15.694 a 2.7,2.7 0 0 1 0.38,-2.518 6.156,6.156 0 0 1 3.6,-2.11 10.3,10.3 0 0 1 2.312,-0.266 9.037,9.037 0 0 1 4.125,0.952 4.1,4.1 0 0 1 2.157,2.348 2.563,2.563 0 0 1 -0.141,1.756 3.678,3.678 0 0 1 -1.2,1.447 8.353,8.353 0 0 1 -4.934,1.487 z"
                 transform="translate(0.032,0.585)"
                 fill="#00b2ca"
                 style="fill:#a30100;fill-opacity:1" /></g><g
               id="profile"
               transform="translate(2.962)"><path
                 id="Path_23924"
                 data-name="Path 23924"
                 d="m 7.037,1.25 a 3.5,3.5 0 1 1 -3.5,3.5 3.5,3.5 0 0 1 3.5,-3.5 M 7.037,0 A 4.748,4.748 0 1 0 11.785,4.748 4.748,4.748 0 0 0 7.037,0 Z" /><path
                 id="Path_23925"
                 data-name="Path 23925"
                 d="m 7.076,10.763 v 1.25 a 8.4,8.4 0 0 1 3.838,0.882 3.5,3.5 0 0 1 1.84,1.959 1.955,1.955 0 0 1 -0.11,1.338 3.05,3.05 0 0 1 -1,1.2 A 7.729,7.729 0 0 1 7.083,18.75 9.474,9.474 0 0 1 4.632,18.43 C 3.35,18.087 1.821,17.285 1.371,16.064 A 2.071,2.071 0 0 1 1.671,14.13 5.535,5.535 0 0 1 4.9,12.261 9.675,9.675 0 0 1 7.071,12.014 v -1.25 m 0,0 a 10.947,10.947 0 0 0 -2.452,0.279 6.8,6.8 0 0 0 -3.96,2.351 3.312,3.312 0 0 0 -0.462,3.1 c 0.619,1.682 2.477,2.705 4.111,3.143 A 10.783,10.783 0 0 0 7.083,20 a 8.957,8.957 0 0 0 5.3,-1.605 3.639,3.639 0 0 0 1.575,-3.87 4.614,4.614 0 0 0 -2.473,-2.739 9.65,9.65 0 0 0 -4.411,-1.021 v 0 z" /></g></g></g></g></g></g></svg>
