<?xml version="1.0" encoding="UTF-8" standalone="no"?>
<!-- Created with Inkscape (http://www.inkscape.org/) -->

<svg
   width="40.825203mm"
   height="40.825562mm"
   viewBox="0 0 40.825204 40.825561"
   version="1.1"
   id="svg1"
   xml:space="preserve"
   xmlns="http://www.w3.org/2000/svg"
   xmlns:svg="http://www.w3.org/2000/svg"><defs
     id="defs1"><clipPath
       clipPathUnits="userSpaceOnUse"
       id="clipPath2"><path
         d="M 0,500 H 500 V 0 H 0 Z"
         transform="translate(-164.5566,-388.57031)"
         id="path2" /></clipPath><clipPath
       clipPathUnits="userSpaceOnUse"
       id="clipPath4"><path
         d="M 0,500 H 500 V 0 H 0 Z"
         transform="translate(-155.1426,-388.57031)"
         id="path4" /></clipPath><clipPath
       clipPathUnits="userSpaceOnUse"
       id="clipPath6"><path
         d="M 0,500 H 500 V 0 H 0 Z"
         transform="translate(-151.0117,-388.57031)"
         id="path6" /></clipPath><clipPath
       clipPathUnits="userSpaceOnUse"
       id="clipPath11"><path
         d="M 61.8513,430.477 H 150.901 V 347.345 H 61.8513 Z"
         transform="translate(-146.56881,-430.47711)"
         id="path11" /></clipPath><clipPath
       clipPathUnits="userSpaceOnUse"
       id="clipPath13"><path
         d="M 0,500 H 500 V 0 H 0 Z"
         transform="matrix(1.3333333,0,0,-1.3333333,0,666.66667)"
         id="path13" /></clipPath><clipPath
       clipPathUnits="userSpaceOnUse"
       id="clipPath14"><path
         d="m 71.659,419.979 h 90.294 V 334.803 H 71.659 Z"
         transform="translate(-155.2788,-419.97901)"
         id="path14" /></clipPath><clipPath
       clipPathUnits="userSpaceOnUse"
       id="clipPath16"><path
         d="M 0,500 H 500 V 0 H 0 Z"
         transform="matrix(1.3333333,0,0,-1.3333333,0,666.66667)"
         id="path16" /></clipPath></defs><g
     id="layer-MC1"
     transform="matrix(0.26458333,0,0,0.26458334,216.75455,-2.9280943)"><path
       id="path1"
       d="m 0,0 c 0,-31.957 -25.906,-57.863 -57.863,-57.863 -31.956,0 -57.862,25.906 -57.862,57.863 0,31.957 25.906,57.863 57.862,57.863 C -25.906,57.863 0,31.957 0,0"
       style="fill:#f8dc4a;fill-opacity:1;fill-rule:nonzero;stroke:none"
       transform="matrix(1.3333333,0,0,-1.3333333,-664.92981,88.217478)"
       clip-path="url(#clipPath2)" /><path
       id="path3"
       d="m 0,0 c 0,-26.757 -21.691,-48.449 -48.449,-48.449 -26.757,0 -48.448,21.692 -48.448,48.449 0,26.757 21.691,48.448 48.448,48.448 C -21.691,48.448 0,26.757 0,0"
       style="fill:#c99204;fill-opacity:1;fill-rule:nonzero;stroke:none"
       transform="matrix(1.3333333,0,0,-1.3333333,-677.48181,88.217478)"
       clip-path="url(#clipPath4)" /><path
       id="path5"
       d="m 0,0 c 0,-24.476 -19.842,-44.318 -44.318,-44.318 -24.476,0 -44.317,19.842 -44.317,44.318 0,24.476 19.841,44.317 44.317,44.317 C -19.842,44.317 0,24.476 0,0"
       style="fill:#dea004;fill-opacity:1;fill-rule:nonzero;stroke:none"
       transform="matrix(1.3333333,0,0,-1.3333333,-682.98968,88.217478)"
       clip-path="url(#clipPath6)" /><g
       opacity="0.100006"
       id="g12"
       clip-path="url(#clipPath13)"
       transform="translate(-884.33861,-60.355452)"><path
         d="m 0,0 -84.718,-78.467 c 1.333,-1.632 2.753,-3.188 4.253,-4.665 L 4.333,-4.59 C 2.973,-2.981 1.525,-1.451 0,0"
         style="fill:#ffffff;fill-opacity:1;fill-rule:nonzero;stroke:none"
         transform="matrix(1.3333333,0,0,-1.3333333,195.42507,92.6972)"
         clip-path="url(#clipPath11)"
         id="path12" /></g><g
       opacity="0.100006"
       id="g15"
       clip-path="url(#clipPath16)"
       transform="translate(-884.33861,-60.355452)"><path
         d="m 0,0 -83.62,-77.45 c 4.148,-3.162 8.738,-5.768 13.659,-7.726 L 6.674,-14.195 C 5.097,-9.126 2.828,-4.365 0,0"
         style="fill:#ffffff;fill-opacity:1;fill-rule:nonzero;stroke:none"
         transform="matrix(1.3333333,0,0,-1.3333333,207.0384,106.69467)"
         clip-path="url(#clipPath14)"
         id="path15" /></g></g></svg>
